<?xml version="1.0" standalone="no"?>
<!DOCTYPE svg PUBLIC "-//W3C//DTD SVG 20010904//EN"
 "http://www.w3.org/TR/2001/REC-SVG-20010904/DTD/svg10.dtd">
<svg version="1.0" xmlns="http://www.w3.org/2000/svg"
 width="500.000000pt" height="500.000000pt" viewBox="0 0 500.000000 500.000000"
 preserveAspectRatio="xMidYMid meet">

<g transform="translate(0.000000,500.000000) scale(0.100000,-0.100000)"
fill="#000000" stroke="none">
<path d="M2175 3464 c-226 -119 -418 -225 -428 -237 -11 -12 -17 -32 -15 -51
3 -29 6 -31 45 -34 39 -3 79 16 425 199 211 111 406 215 435 231 l52 29 -17
29 c-16 28 -49 50 -75 50 -7 0 -197 -97 -422 -216z"/>
<path d="M2420 3312 l-315 -167 230 -3 c259 -3 271 -1 428 65 l107 45 -57 111
c-32 61 -62 112 -68 113 -5 2 -152 -72 -325 -164z"/>
<path d="M1715 3075 l-25 -24 0 -269 c0 -251 1 -271 19 -293 l19 -24 446 -3
447 -3 -21 41 c-21 41 -28 44 -98 40 -24 -1 -40 6 -62 28 -31 32 -37 60 -20
93 13 24 67 52 86 45 8 -3 14 -4 14 -2 0 1 -7 47 -15 102 -8 54 -15 143 -15
197 l0 97 -375 0 -376 0 -24 -25z m223 -195 c5 -111 5 -111 -91 -108 l-82 3
-3 88 -3 88 88 -3 88 -3 3 -65z m282 -215 c0 -13 -29 -15 -227 -13 -170 2
-227 6 -231 16 -3 9 47 12 227 12 200 0 231 -2 231 -15z m-40 -70 c0 -13 -30
-15 -210 -15 -180 0 -210 2 -210 15 0 13 30 15 210 15 180 0 210 -2 210 -15z"/>
<path d="M585 2066 c-45 -20 -76 -59 -82 -105 -11 -83 36 -131 141 -145 76
-10 101 -42 51 -64 -38 -17 -53 -15 -81 13 -19 19 -35 25 -69 25 -39 0 -45 -3
-45 -20 0 -64 73 -120 155 -120 93 0 155 48 163 128 6 63 -26 104 -95 121
-121 30 -123 31 -123 52 0 43 96 51 107 9 4 -16 14 -20 54 -20 43 0 49 3 49
20 0 87 -130 148 -225 106z"/>
<path d="M890 1865 l0 -215 50 0 50 0 0 65 0 65 53 0 c98 0 157 57 157 151 0
56 -31 107 -80 131 -26 14 -60 18 -132 18 l-98 0 0 -215z m200 100 c18 -22 15
-66 -6 -82 -10 -7 -35 -13 -56 -13 l-38 0 0 55 0 55 44 0 c27 0 48 -6 56 -15z"/>
<path d="M1260 1865 l0 -215 135 0 135 0 0 50 0 50 -85 0 -85 0 0 35 0 35 85
0 85 0 0 50 0 50 -85 0 -85 0 0 30 0 30 85 0 85 0 0 50 0 50 -135 0 -135 0 0
-215z"/>
<path d="M1600 1865 l0 -215 135 0 135 0 0 50 0 50 -85 0 -85 0 0 35 0 35 85
0 85 0 0 50 0 50 -85 0 -85 0 0 30 0 30 85 0 85 0 0 50 0 50 -135 0 -135 0 0
-215z"/>
<path d="M2985 2061 c-49 -22 -99 -77 -115 -126 -7 -21 -10 -64 -8 -96 11
-155 174 -237 319 -161 128 67 147 251 36 349 -62 54 -158 68 -232 34z m178
-121 c55 -61 26 -168 -52 -191 -50 -15 -86 -6 -122 31 -24 23 -29 37 -29 75 0
36 21 104 33 105 1 0 20 6 41 14 50 17 92 6 129 -34z"/>
<path d="M3422 1872 c-45 -115 -82 -212 -82 -215 0 -4 23 -7 51 -7 47 0 52 2
62 30 11 30 12 30 88 30 77 0 77 0 88 -30 9 -29 13 -30 67 -30 41 0 55 3 51
13 -2 6 -42 103 -88 215 l-83 202 -36 0 -36 0 -82 -208z m141 -17 l16 -45 -35
0 c-19 0 -34 3 -34 6 0 18 24 84 31 84 4 0 14 -20 22 -45z"/>
<path d="M4253 2061 c-50 -23 -73 -62 -73 -124 0 -76 38 -107 152 -123 58 -8
79 -27 55 -52 -25 -24 -87 -21 -105 6 -12 18 -24 22 -63 22 -49 0 -49 0 -43
-27 17 -71 78 -113 161 -113 157 0 224 179 90 241 -23 10 -54 19 -69 19 -67 0
-105 45 -59 70 30 16 50 12 77 -15 19 -19 35 -25 69 -25 39 0 45 3 45 20 0 63
-73 120 -155 120 -22 0 -59 -9 -82 -19z"/>
<path d="M1940 1859 l0 -211 113 4 c91 3 120 8 154 26 60 31 96 89 101 162 5
71 -10 120 -51 167 -46 53 -80 63 -207 63 l-110 0 0 -211z m236 87 c30 -30 34
-40 34 -84 0 -43 -5 -55 -31 -81 -27 -27 -38 -31 -85 -31 l-54 0 0 115 0 115
51 0 c45 0 55 -4 85 -34z"/>
<path d="M2520 1860 l0 -210 140 0 140 0 0 50 0 50 -90 0 -90 0 0 160 0 160
-50 0 -50 0 0 -210z"/>
<path d="M3790 1860 l0 -210 45 0 45 0 0 100 c0 55 3 100 8 100 4 0 38 -45 76
-100 68 -97 71 -100 108 -100 l38 0 0 210 0 210 -50 0 -49 0 -3 -101 -3 -101
-69 101 c-68 98 -71 101 -108 101 l-38 0 0 -210z"/>
</g>
</svg>
